<?xml version="1.0" encoding="UTF-8" standalone="no"?>
<svg
   width="51.29599"
   height="51.306919"
   viewBox="0 0 51.29599 51.306919"
   fill="none"
   version="1.1"
   id="svg24"
   sodipodi:docname="Apache_Iceberg_Logo.svg"
   inkscape:version="1.4 (e7c3feb1, 2024-10-09)"
   xmlns:inkscape="http://www.inkscape.org/namespaces/inkscape"
   xmlns:sodipodi="http://sodipodi.sourceforge.net/DTD/sodipodi-0.dtd"
   xmlns="http://www.w3.org/2000/svg"
   xmlns:svg="http://www.w3.org/2000/svg">
  <sodipodi:namedview
     id="namedview24"
     pagecolor="#505050"
     bordercolor="#eeeeee"
     borderopacity="1"
     inkscape:showpageshadow="0"
     inkscape:pageopacity="0"
     inkscape:pagecheckerboard="0"
     inkscape:deskcolor="#505050"
     inkscape:zoom="1.1538568"
     inkscape:cx="-34.233019"
     inkscape:cy="-16.466515"
     inkscape:window-width="1304"
     inkscape:window-height="637"
     inkscape:window-x="0"
     inkscape:window-y="33"
     inkscape:window-maximized="0"
     inkscape:current-layer="g24" />
  <g
     clip-path="url(#clip0_250_177)"
     id="g24"
     transform="translate(-172.70372)">
    <path
       d="m 219.858,12.0673 c 1.969,2.1997 2.842,4.9382 3.467,7.6975 3.212,14.2108 -5.329,27.8738 -19.561,30.9321 -15.554,3.3425 -28.767,-7.5199 -30.751,-21.1267 -0.879,-5.595 0.128,-11.3235 2.863,-16.2831 0.252,-0.4649 0.417,-1.0214 1.001,-1.2287 l 7.345,0.1214 -2.505,5.2965 c 0,0.1816 0,0.3631 0,0.5447 1.809,5.2491 5.181,9.5627 8.381,13.9769 0.344,1.874 0.089,3.8487 0.924,5.6399 2.333,2.6349 4.665,5.2718 6.996,7.9106 0.172,0.1954 0.379,0.3198 0.592,0.0297 1.066,-0.6514 1.377,-1.8474 1.966,-2.8215 1.338,-2.2026 2.792,-4.3461 3.849,-6.7116 l 0.325,-0.5151 c 1.309,-0.5093 2.135,-1.6816 3.293,-2.3951 0.387,-0.2127 0.703,-0.5347 0.909,-0.9258 0.206,-0.3911 0.292,-0.8342 0.248,-1.274 -0.068,-2.2115 -0.024,-4.4408 -0.027,-6.6435 0.525,-0.5189 1.019,-1.0675 1.481,-1.6431 1.128,-1.5839 2.904,-2.6645 3.567,-4.6007 0.117,0.0152 0.236,-0.0048 0.342,-0.0576 0.105,-0.0527 0.192,-0.1358 0.25,-0.2385 0.468,-0.7105 -0.035,-1.3056 -0.239,-1.9303 -0.391,-1.202 -1.14,-2.2856 -1.217,-3.5941 z"
       fill="#287abe"
       id="path1" />
    <path
       d="m 184.225,12.1798 -7.345,-0.1214 c 0.968,-2.51943 2.883,-4.32242 4.861,-5.98034 3.404,-2.85695 7.309,-4.8287 11.718,-5.625091 7.668,-1.364825 14.643,0.296058 20.816,5.074421 2.3,1.77635 4.387,3.78954 5.589,6.53101 l -6.513,0.1421 -5.329,-0.0651 v -1.7971 l 3.819,-0.0207 0.124,-0.0681 -0.121,-0.2013 c -0.643,-0.63032 -1.411,-1.11901 -2.255,-1.43463 -0.843,-0.31563 -1.743,-0.45119 -2.642,-0.39797 -5.252,0.12434 -10.507,0.05033 -15.759,0.03848 -1.842,0 -3.375,0.78752 -4.852,1.76152 -1.362,0.0592 -1.386,1.2227 -1.738,2.1109 z"
       fill="#b8e1f2"
       id="path2" />
    <path
       d="m 181.717,18.0151 c 0,-0.1816 0,-0.3632 0,-0.5447 3.07,-0.9119 5.889,-2.4277 8.778,-3.76 0.915,-0.4233 2.176,-0.3878 2.665,-1.5602 1.758,0.074 3.552,-0.2961 5.278,0.2309 0.014,4.1448 0.028,8.2995 0.042,12.464 h -0.272 c -3.373,-1.4418 -6.721,-2.9398 -10.123,-4.3046 -2.111,-0.8379 -4.044,-2.1761 -6.368,-2.5254 z"
       fill="#b6e0f2"
       id="path3" />
    <path
       d="m 181.717,18.0151 c 2.321,0.3464 4.254,1.6816 6.377,2.5343 3.402,1.3648 6.75,2.8628 10.122,4.3046 -0.269,1.2642 -1.521,1.5662 -2.309,2.3093 -1.797,1.6993 -3.946,2.9931 -5.66,4.7961 -0.047,0.0212 -0.097,0.0333 -0.148,0.0355 -3.198,-4.4142 -6.57,-8.7248 -8.382,-13.9798 z"
       fill="#90d4f0"
       id="path4" />
    <path
       d="m 209.176,24.2797 c 0,2.2145 -0.041,4.4408 0.027,6.6435 0.044,0.4398 -0.042,0.8828 -0.248,1.2739 -0.206,0.3912 -0.522,0.7131 -0.909,0.9258 -1.158,0.7135 -1.984,1.8859 -3.293,2.3951 -1.397,-1.7763 -2.267,-3.8961 -3.52,-5.7613 -0.852,-1.2671 -1.205,-2.9013 -2.664,-3.7303 0,-0.2803 0.005,-0.5605 0.015,-0.8408 l 0.565,-0.2961 c 0.255,0.3139 0.613,0.2724 0.944,0.2428 3.022,-0.2763 6.05,-0.5605 9.083,-0.8526 z"
       fill="#4d8ac8"
       id="path5" />
    <path
       d="m 191.022,37.6407 c -0.835,-1.7941 -0.592,-3.7658 -0.921,-5.6428 0.052,-0.0023 0.102,-0.0143 0.148,-0.0355 2.665,0.1125 5.329,0.1806 7.976,0.5921 0,2.0724 -0.005,4.1448 -0.015,6.2172 -0.534,-0.0207 -1.066,-0.0781 -1.592,-0.1717 -1.871,-0.2902 -3.677,-0.9533 -5.596,-0.9593 z"
       fill="#b6e0f2"
       id="path6" />
    <path
       d="m 198.208,38.7687 c 0,-2.0724 0.004,-4.1448 0.014,-6.2172 0.613,-2.1494 0.095,-4.3579 0.335,-6.5132 1.462,0.8289 1.818,2.4661 2.664,3.7303 1.256,1.8681 2.123,3.976 3.521,5.7613 l -0.326,0.5151 -5.954,2.7385 c -0.085,0.0035 -0.17,-0.0014 -0.254,-0.0148 z"
       fill="#58afdd"
       id="path7" />
    <path
       d="m 208.007,12.1443 5.329,0.0651 c 0.077,1.3086 0.826,2.3922 1.217,3.5942 0.204,0.6276 0.707,1.2197 0.24,1.9302 -0.117,-0.0093 -0.233,0.0133 -0.338,0.0655 -0.104,0.0522 -0.192,0.1319 -0.255,0.2306 -1.11,0.2072 -2.072,0.7964 -3.076,1.2464 -1.003,0.45 -1.894,1.202 -3.082,1.1694 0,-2.7474 -0.004,-5.4938 -0.014,-8.2392 z"
       fill="#4d8ac8"
       id="path8" />
    <path
       d="m 208.048,20.4487 c 1.185,0.0326 2.073,-0.7224 3.082,-1.1694 1.01,-0.4471 1.966,-1.0392 3.076,-1.2464 -0.666,1.9391 -2.439,3.0168 -3.567,4.6007 -0.462,0.5756 -0.956,1.1242 -1.48,1.6431 -3.03,0.2862 -6.06,0.5714 -9.089,0.8556 -0.332,0.0296 -0.69,0.0711 -0.945,-0.2427 2.093,-0.9682 4.201,-1.9037 6.271,-2.9192 0.917,-0.4441 1.98,-0.6543 2.652,-1.5217 z"
       fill="#266fa8"
       id="path9" />
    <path
       d="m 198.208,38.7687 c 0.087,0.0091 0.175,0.0091 0.263,0 0.047,2.2659 0.094,4.5356 0.139,6.8093 -0.213,0.2961 -0.417,0.1629 -0.592,-0.0296 -2.335,-2.6309 -4.667,-5.2639 -6.996,-7.8988 1.916,0 3.722,0.6691 5.593,0.9593 0.526,0.0896 1.059,0.143 1.593,0.1598 z"
       fill="#90d4f0"
       id="path10" />
    <path
       d="m 193.172,12.1561 c -0.501,1.1843 -1.762,1.1369 -2.665,1.5602 -2.889,1.3323 -5.708,2.8481 -8.778,3.76 l 2.508,-5.2965 0.367,-0.0474 z"
       fill="#90d4f0"
       id="path11" />
    <path
       d="m 198.607,45.5692 c -0.045,-2.2659 -0.092,-4.5356 -0.139,-6.8094 l 5.954,-2.7385 c -1.057,2.3685 -2.511,4.509 -3.849,6.7116 -0.574,0.9859 -0.9,2.182 -1.966,2.8363 z"
       fill="#266fa8"
       id="path12" />
    <path
       d="m 214.209,18.0388 c 0.063,-0.0987 0.151,-0.1784 0.255,-0.2306 0.105,-0.0522 0.221,-0.0748 0.338,-0.0655 -0.058,0.1027 -0.146,0.1858 -0.251,0.2385 -0.106,0.0528 -0.225,0.0728 -0.342,0.0576 z"
       fill="#266fa8"
       id="path13" />
    <path
       d="m 186.327,10.0215 c 1.48,-0.97398 3.011,-1.7763 4.852,-1.76149 5.255,0 10.51,0.08585 15.759,-0.03849 0.9,-0.05367 1.802,0.08195 2.646,0.39811 0.845,0.31616 1.613,0.80584 2.257,1.43747 0,0.0908 0,0.1816 0,0.2723 l -3.849,0.0208 h -19.806 c -0.639,0 -1.285,0.0385 -1.859,-0.3287 z"
       fill="#f4fafd"
       id="path14" />
    <path
       d="m 186.327,10.0215 c 0.574,0.3672 1.22,0.3257 1.859,0.3257 h 19.806 v 1.7971 l 0.024,0.0651 -9.566,0.1806 c -1.741,-0.524 -3.52,-0.1569 -5.278,-0.2309 l -8.586,-0.0207 c 0.358,-0.8941 0.379,-2.0576 1.741,-2.1169 z"
       fill="#e9f6fd"
       id="path15" />
    <path
       d="m 211.841,10.3176 c 0,-0.0908 0,-0.1816 0,-0.2724 l 0.121,0.2013 z"
       fill="#e9f6fd"
       id="path16" />
    <path
       d="m 198.45,12.39 9.584,-0.1747 c 0,2.7474 0.005,5.4939 0.014,8.2393 -0.672,0.8675 -1.732,1.0777 -2.64,1.5247 -2.073,1.0155 -4.178,1.951 -6.271,2.9191 l -0.565,0.2961 -0.08,-0.3346 z"
       fill="#68c1ea"
       id="path17" />
  </g>
  <defs
     id="defs24">
    <clipPath
       id="clip0_250_177">
      <rect
         width="224"
         height="51.315601"
         fill="#ffffff"
         id="rect24"
         x="0"
         y="0" />
    </clipPath>
  </defs>
</svg>
