<svg width="65" height="65" viewBox="0 0 65 65" fill="none" xmlns="http://www.w3.org/2000/svg">
<g clip-path="url(#clip0_1390_17222)">
<path fill-rule="evenodd" clip-rule="evenodd" d="M49.2731 44.3426L48.9817 43.7232L42.6145 31.6524C42.3991 31.2485 42.426 31.008 42.7107 30.6646L52.7838 18.8344C52.9011 18.6958 53.0079 18.5477 53.0531 18.3015L50.1118 19.071L37.8968 22.3171C37.5179 22.419 37.3457 22.3075 37.1562 21.9939L30.2196 10.4368C30.0994 10.2367 29.9695 10.052 29.7147 9.8741L29.1549 12.9586L27.2188 23.856L27.0187 25.0332C26.986 25.418 26.7936 25.5468 26.4551 25.6536L12.075 30.1982C11.8634 30.2655 11.6595 30.3501 11.4335 30.556L23.2638 35.2535L22.9175 35.5257L15.5568 40.2837C15.4369 40.3773 15.2922 40.4337 15.1406 40.446C14.989 40.4583 14.8371 40.426 14.7037 40.353L5.90691 36.4326C4.59115 35.8556 3.4062 35.064 2.48478 33.9367C0.40053 31.3879 0.811223 28.4861 3.58894 26.7231C4.49785 26.1432 5.52988 25.7084 6.55902 25.3728L20.6842 20.8859C21.0689 20.7628 21.2613 20.5858 21.3354 20.1578L23.259 9.26046C23.6091 7.31952 23.7957 5.31703 24.7402 3.54922C25.1028 2.87595 25.5385 2.19498 26.055 1.62174C27.9257 -0.455773 30.537 -0.534642 32.5145 1.44285C33.182 2.11034 33.7649 2.89807 34.2525 3.70599L40.6986 14.4167C40.9506 14.8399 41.1795 14.9265 41.645 14.8015L57.4341 10.607C58.519 10.3204 59.6174 10.2155 60.7303 10.4146C63.154 10.8686 64.2149 12.723 63.3945 15.0563C63.0213 16.1143 62.3769 17.0252 61.6632 17.8764L50.6437 30.8291C50.3427 31.1811 50.3359 31.4351 50.5447 31.8294L57.1061 44.2695C57.6294 45.2621 58.0295 46.2922 58.0391 47.4319C58.0651 50.025 56.1693 52.1467 53.5926 52.5238C52.1499 52.7354 50.8092 52.4276 49.4568 52.0102L39.5502 48.9968C39.2443 48.9054 39.127 48.7852 39.0731 48.4553L37.8785 41.4918C37.867 41.4283 37.8862 41.359 37.8959 41.2167L49.2645 44.3522" fill="#E25A1C"/>
<path d="M23.2542 35.2535L25.3509 36.1672L23.0205 54.7302L35.7587 40.6108L37.9065 41.2138L40.5514 49.2546L37.1139 48.0427L28.2191 57.6454C28.2191 57.6454 24.241 61.7639 22.0846 61.0695C19.9282 60.3751 18.1085 58.4534 17.9065 55.0178C17.7045 51.5822 16.7947 41.7736 16.7947 41.7736L12.4473 38.64L23.2542 35.2535Z" fill="#E25A1C"/>
<path d="M16.7937 41.7746C16.7937 41.7746 14.8739 63.0047 18.6135 63.7116C22.353 64.4185 18.2095 63.6106 18.2095 63.6106C18.2095 63.6106 20.3322 66.0373 28.7221 57.0395L37.113 48.0427L20.3313 57.9494C20.7352 57.4435 22.454 40.2578 22.454 40.2578L16.7937 41.7746Z" fill="#E25A1C"/>
</g>
<defs>
<clipPath id="clip0_1390_17222">
<rect width="64" height="64" fill="white" transform="translate(0.425537 0.00253296)"/>
</clipPath>
</defs>
</svg>
