<svg width="73" height="106" viewBox="0 0 73 106" fill="none" xmlns="http://www.w3.org/2000/svg">
<g clip-path="url(#clip0_1390_17216)">
<path d="M65.3766 51.9571C65.3766 50.635 64.8514 49.3671 63.9166 48.4323C62.9818 47.4975 61.7139 46.9723 60.3918 46.9723C59.0698 46.9723 57.8019 47.4975 56.8671 48.4323C55.9323 49.3671 55.4071 50.635 55.4071 51.9571C55.4333 52.9047 55.7525 53.821 56.3208 54.5798C56.8892 55.3385 57.6787 55.9025 58.5807 56.1941V63.7876C56.4081 58.2239 52.3424 53.605 47.0992 50.7441C47.8636 49.0825 48.6445 47.6536 49.3922 46.3409C52.2483 42.1163 55.3964 38.0965 58.8133 34.311C60.6909 32.0845 62.4688 29.9909 63.9144 28.1632C67.9686 23.0787 72.4217 15.5684 71.5909 11.1153C71.49 10.4912 71.2512 9.89739 70.8919 9.37714C70.5326 8.85689 70.0619 8.42329 69.5139 8.10786C63.8812 4.78469 56.2213 15.585 48.6943 26.0031C43.7096 32.8821 41.1342 42.619 39.9545 48.0856C37.6458 47.5798 35.2894 47.3236 32.926 47.3213C29.4896 47.3105 26.0755 47.8721 22.8236 48.9828C22.612 42.8849 22.7952 36.7797 23.3719 30.7054C25.0335 14.9037 24.3024 5.6321 21.2285 2.45847C20.834 1.98141 20.3352 1.60143 19.7705 1.3479C19.2058 1.09436 18.5904 0.974053 17.9718 0.996274C8.89958 1.4449 9.92976 28.5454 10.0793 31.6359C10.4448 39.0466 13.4025 48.0524 15.197 53.0371C11.0097 56.3497 7.96026 60.8861 6.47368 66.0141H5.82566C5.14286 65.9829 4.46066 66.0875 3.81856 66.3218C3.17646 66.5561 2.58723 66.9155 2.08498 67.3791C1.58273 67.8427 1.17745 68.4014 0.892602 69.0227C0.607754 69.6441 0.449002 70.3157 0.425537 70.9989L0.425537 79.5892C0.451189 80.2716 0.611412 80.9423 0.897003 81.5626C1.18259 82.1829 1.58792 82.7406 2.08971 83.2038C2.5915 83.667 3.17986 84.0265 3.82099 84.2616C4.46212 84.4968 5.14339 84.6029 5.82566 84.574H6.9223C8.17112 87.5011 10.0356 90.1249 12.3889 92.2671L10.7273 93.7293C10.3399 94.0637 10.0999 94.5373 10.0595 95.0475C10.0191 95.5576 10.1814 96.0631 10.5113 96.4543C15.496 102.519 23.6544 105.992 32.8097 105.992C41.965 105.992 50.1565 102.519 55.108 96.4543C55.4379 96.0631 55.6003 95.5576 55.5598 95.0475C55.5194 94.5373 55.2794 94.0637 54.892 93.7293L53.2304 92.2671C55.5907 90.0788 57.4547 87.4103 58.697 84.4411H59.9432C60.6255 84.47 61.3068 84.3638 61.9479 84.1287C62.589 83.8936 63.1774 83.5341 63.6792 83.0709C64.181 82.6077 64.5863 82.0499 64.8719 81.4296C65.1575 80.8093 65.3177 80.1387 65.3433 79.4563V70.9324C65.3188 69.9583 65.0035 69.0137 64.438 68.2202C63.8724 67.4267 63.0825 66.8204 62.1697 66.4793V56.1941C63.0793 55.9104 63.8774 55.3494 64.4524 54.5897C65.0274 53.83 65.3505 52.9095 65.3766 51.9571Z" fill="#CDCCCC"/>
<path d="M24.7177 93.6114C26.2464 92.5979 22.2254 92.98 21.893 92.2988C20.2872 92.1567 18.6969 91.8731 17.1409 91.4514C14.3162 90.7037 7.53701 86.151 6.80591 81.781C6.07482 77.4111 6.80591 69.1198 9.86322 64.1351C11.7774 61.0982 14.2463 58.4489 17.1409 56.3257C17.1409 56.3257 11.2091 42.2189 10.7106 31.5682C10.2121 20.9175 11.0429 1.95895 17.9883 1.62664C24.9337 1.29432 23.9202 19.0399 22.7404 30.5879C22.04 38.2556 21.9289 45.9658 22.4081 53.6505C25.3666 52.7109 28.4436 52.1962 31.5468 52.1219C34.2812 52.0585 37.0137 52.315 39.6885 52.8862C39.6885 52.8862 41.8984 36.5363 49.1761 26.301C56.4539 16.0657 64.1303 5.61442 69.1151 8.58864C74.0998 11.5629 67.7526 22.1803 63.3494 27.7134C58.9462 33.2464 51.3196 41.5543 48.7774 45.9907C47.1108 48.9427 45.6399 52.0011 44.3742 55.146C48.9079 57.4727 52.6151 61.1393 54.9917 65.6471C58.5807 72.8085 58.8465 81.6149 56.9191 85.3534C55.9513 87.0798 54.6138 88.5709 53.0023 89.7199C51.3908 90.8689 49.5452 91.6474 47.5976 91.9997C45.3877 92.0994 36.0995 94.409 36.0995 94.409L24.7177 93.6114Z" fill="white"/>
<path d="M40.9846 53.036C40.9846 53.036 46.5343 38.5636 51.5024 30.4385C56.4705 22.3133 63.1334 16.1655 65.227 17.4117C67.3205 18.6578 60.9567 26.2513 55.3738 33.7118C50.826 40.2995 46.7025 47.1702 43.0284 54.2822L40.9846 53.036Z" fill="#DD00A1"/>
<path d="M18.7028 55.5117L20.3644 54.2821C20.3644 54.2821 20.1318 39.8097 20.3644 31.02C20.597 22.2302 21.0456 11.2472 18.1047 11.3469C15.1637 11.4466 13.1199 19.9373 14.2664 31.9172C15.092 39.8909 16.5759 47.7827 18.7028 55.5117Z" fill="#DD00A1"/>
<path d="M13.7513 86.5333C15.5315 86.5333 16.9747 85.0901 16.9747 83.3098C16.9747 81.5295 15.5315 80.0863 13.7513 80.0863C11.971 80.0863 10.5278 81.5295 10.5278 83.3098C10.5278 85.0901 11.971 86.5333 13.7513 86.5333Z" fill="#F9D8D2"/>
<path d="M51.8511 86.5333C53.6314 86.5333 55.0746 85.0901 55.0746 83.3098C55.0746 81.5295 53.6314 80.0863 51.8511 80.0863C50.0709 80.0863 48.6277 81.5295 48.6277 83.3098C48.6277 85.0901 50.0709 86.5333 51.8511 86.5333Z" fill="#F9D8D2"/>
<path d="M38.1434 83.0439C38.1087 83.0235 38.0702 83.0103 38.0303 83.005C37.9903 82.9998 37.9497 83.0027 37.9109 83.0136C37.8721 83.0245 37.8359 83.0431 37.8045 83.0683C37.7731 83.0935 37.7471 83.1247 37.728 83.1602C37.728 83.1602 36.7643 84.8218 35.3686 84.9215C34.8958 84.9076 34.4309 84.7972 34.0023 84.5972C33.5738 84.3972 33.1906 84.1118 32.8762 83.7584V81.2993C33.7735 80.8008 35.219 79.3054 35.219 78.7903C35.0931 78.2412 34.7735 77.7558 34.3188 77.4232C33.8641 77.0906 33.3048 76.9329 32.7433 76.9792C31.0817 76.9792 29.9186 78.0592 29.9186 78.9564C29.9186 79.8537 31.7463 81.0168 32.2614 81.3491V83.775C31.9992 84.108 31.6699 84.3821 31.295 84.5796C30.92 84.7771 30.5077 84.8936 30.0848 84.9215C28.7721 84.9215 27.7752 83.127 27.7586 83.1104C27.7197 83.0391 27.6549 82.9854 27.5775 82.9607C27.5001 82.9359 27.4162 82.9419 27.3432 82.9775C27.2706 83.0194 27.2166 83.0873 27.1919 83.1674C27.1673 83.2475 27.1738 83.334 27.2102 83.4095C27.2102 83.4095 28.39 85.5529 30.0848 85.5529C30.5635 85.532 31.0329 85.4137 31.4643 85.2051C31.8957 84.9966 32.28 84.7022 32.5937 84.34C33.2833 85.0626 34.2218 85.4962 35.219 85.5529H35.4184C36.0171 85.4351 36.5823 85.1862 37.0735 84.8243C37.5647 84.4623 37.9698 83.9962 38.2597 83.4593C38.2802 83.4246 38.2934 83.3861 38.2986 83.3462C38.3038 83.3062 38.3009 83.2657 38.29 83.2269C38.2792 83.1881 38.2606 83.1519 38.2354 83.1204C38.2102 83.089 38.1789 83.063 38.1434 83.0439Z" fill="#10110E"/>
<path d="M17.141 56.3592C17.141 56.3592 12.5385 44.7281 11.6578 38.6467C10.7772 32.5653 9.99625 22.413 11.1594 15.6504C11.6591 12.5349 12.3359 9.45047 13.1865 6.41199C13.1865 6.41199 11.043 22.1804 11.8406 29.076C12.6382 35.9716 17.141 56.3592 17.141 56.3592Z" fill="#E5E5E5"/>
<path d="M39.6885 52.8864C39.6885 52.8864 43.0116 35.2903 47.8468 28.3781C52.682 21.4659 58.6803 13.0749 61.721 10.9647L64.7617 8.8379C64.7617 8.8379 52.5657 21.6321 47.8468 32.1001C43.1279 42.568 39.6885 52.8864 39.6885 52.8864Z" fill="#E5E5E5"/>
<path d="M20.3645 72.8252C19.8643 72.8219 19.3743 72.9672 18.9568 73.2428C18.5393 73.5183 18.213 73.9115 18.0193 74.3727C17.8256 74.8339 17.7732 75.3423 17.8688 75.8333C17.9644 76.3243 18.2036 76.7758 18.5561 77.1307C18.9087 77.4856 19.3586 77.7278 19.849 77.8266C20.3394 77.9254 20.848 77.8764 21.3105 77.6857C21.7729 77.4951 22.1684 77.1714 22.4466 76.7557C22.7249 76.34 22.8734 75.851 22.8735 75.3508C22.8735 74.6839 22.6097 74.044 22.1396 73.5708C21.6696 73.0976 21.0314 72.8296 20.3645 72.8252ZM21.079 75.168C20.8983 75.168 20.725 75.0963 20.5972 74.9685C20.4695 74.8407 20.3977 74.6675 20.3977 74.4868C20.3977 74.3061 20.4695 74.1328 20.5972 74.0051C20.725 73.8773 20.8983 73.8055 21.079 73.8055C21.2596 73.8055 21.4329 73.8773 21.5607 74.0051C21.6884 74.1328 21.7602 74.3061 21.7602 74.4868C21.7603 74.5791 21.7416 74.6705 21.7054 74.7554C21.6691 74.8403 21.6159 74.9169 21.5491 74.9807C21.4822 75.0444 21.4032 75.0938 21.3166 75.126C21.2301 75.1583 21.1379 75.1725 21.0457 75.168H21.079Z" fill="#10110E"/>
<path d="M45.155 72.8254C44.6555 72.8254 44.1672 72.9735 43.7518 73.251C43.3365 73.5285 43.0128 73.923 42.8216 74.3845C42.6305 74.846 42.5805 75.3538 42.6779 75.8437C42.7754 76.3336 43.0159 76.7836 43.3691 77.1368C43.7223 77.4901 44.1724 77.7306 44.6623 77.828C45.1522 77.9255 45.66 77.8755 46.1215 77.6843C46.583 77.4932 46.9774 77.1695 47.2549 76.7541C47.5325 76.3388 47.6806 75.8505 47.6806 75.351C47.6806 74.6811 47.4145 74.0387 46.9409 73.5651C46.4672 73.0915 45.8248 72.8254 45.155 72.8254ZM45.8695 75.1682C45.6901 75.164 45.5193 75.0908 45.3924 74.964C45.2656 74.8371 45.1924 74.6663 45.1882 74.487C45.2138 74.3225 45.2974 74.1725 45.4239 74.0642C45.5503 73.956 45.7113 73.8965 45.8778 73.8965C46.0443 73.8965 46.2052 73.956 46.3317 74.0642C46.4581 74.1725 46.5417 74.3225 46.5673 74.487C46.563 74.6691 46.4876 74.8424 46.3571 74.9697C46.2267 75.097 46.0517 75.1683 45.8695 75.1682Z" fill="#10110E"/>
<path opacity="0.2" d="M33.2085 93.1796C46.1475 93.1796 56.6366 85.6214 56.6366 76.2979C56.6366 66.9745 46.1475 59.4163 33.2085 59.4163C20.2694 59.4163 9.78027 66.9745 9.78027 76.2979C9.78027 85.6214 20.2694 93.1796 33.2085 93.1796Z" fill="#8ACCCE"/>
<path d="M61.5716 66.91V55.8273C62.4459 55.6345 63.2324 55.1589 63.8091 54.474C64.3858 53.7892 64.7207 52.9333 64.7618 52.0389C64.6464 50.9582 64.1353 49.9585 63.327 49.232C62.5188 48.5054 61.4704 48.1035 60.3836 48.1035C59.2968 48.1035 58.2484 48.5054 57.4401 49.232C56.6318 49.9585 56.1208 50.9582 56.0053 52.0389C56.0427 52.9318 56.3742 53.7874 56.9481 54.4725C57.5221 55.1576 58.3063 55.6339 59.1789 55.8273V66.6275H58.8632C55.5401 55.0962 45.7201 47.9348 32.9094 47.9348C20.0986 47.9348 10.2122 55.0297 6.93889 66.6275H5.82563C4.62162 66.5686 3.44309 66.9878 2.54677 67.7938C1.65046 68.5999 1.10898 69.7275 1.04028 70.931V79.5213C1.11318 80.7219 1.65649 81.8453 2.55234 82.6478C3.44819 83.4503 4.62433 83.8673 5.82563 83.8082H7.33767C8.62248 87.0673 10.6744 89.9685 13.3193 92.2656L11.1593 94.1931C11.0264 94.3049 10.9171 94.4419 10.8375 94.5963C10.758 94.7506 10.7099 94.9192 10.696 95.0923C10.6821 95.2654 10.7026 95.4395 10.7565 95.6046C10.8104 95.7697 10.8964 95.9224 11.0098 96.054C15.8616 101.919 23.8205 105.359 32.8263 105.359C41.832 105.359 49.791 102.036 54.6428 96.054C54.7561 95.9224 54.8422 95.7697 54.8961 95.6046C54.9499 95.4395 54.9705 95.2654 54.9566 95.0923C54.9427 94.9192 54.8946 94.7506 54.815 94.5963C54.7355 94.4419 54.6261 94.3049 54.4933 94.1931L52.3332 92.2656C54.9671 89.9585 57.017 87.0602 58.3149 83.8082H59.9765C61.1778 83.8673 62.3539 83.4503 63.2498 82.6478C64.1456 81.8453 64.6889 80.7219 64.7618 79.5213V70.931C64.7247 70.0092 64.3958 69.123 63.8224 68.4003C63.249 67.6776 62.4608 67.1557 61.5716 66.91ZM32.9094 60.1806C44.773 60.1806 54.4102 67.99 54.4102 77.5773C54.4102 87.9622 43.5767 92.5315 32.9094 92.5315C22.242 92.5315 11.4085 87.8791 11.4085 77.5773C11.4085 67.99 21.0457 60.1806 32.9094 60.1806Z" fill="white"/>
<path d="M62.369 76.647H59.1788C59.1788 76.1485 59.1788 75.65 59.1788 75.0851C59.177 72.9648 58.9655 70.8498 58.5474 68.7711H59.8932C60.1933 68.7509 60.4943 68.7912 60.7785 68.8896C61.0626 68.9881 61.324 69.1426 61.5473 69.3441C61.7705 69.5457 61.9509 69.79 62.0778 70.0626C62.2047 70.3353 62.2754 70.6306 62.2859 70.9312L62.369 76.647Z" fill="#515151"/>
<path d="M59.9765 81.6648H58.3149C58.6311 80.491 58.8698 79.2976 59.0294 78.0924H62.3526V79.5214C62.3421 79.8197 62.2718 80.1129 62.1457 80.3836C62.0197 80.6542 61.8405 80.8967 61.6188 81.0967C61.3971 81.2966 61.1375 81.45 60.8554 81.5476C60.5732 81.6452 60.2744 81.6851 59.9765 81.6648Z" fill="#515151"/>
<path d="M32.9093 103.149C24.9337 103.149 17.8554 100.275 13.3857 95.1902L15.6289 93.1963C20.7347 96.6054 26.7722 98.347 32.9093 98.1811C39.0459 98.3437 45.0825 96.6024 50.1897 93.1963L52.4162 95.1902C47.9632 100.275 40.8682 103.149 32.9093 103.149Z" fill="#515151"/>
<path d="M5.82561 68.7711H7.25457C6.8397 70.8503 6.62824 72.965 6.62317 75.0851C6.58352 75.605 6.58352 76.1271 6.62317 76.647H3.51602V70.9312C3.51026 70.633 3.56725 70.337 3.68331 70.0623C3.79936 69.7876 3.97189 69.5404 4.18968 69.3367C4.40748 69.133 4.66567 68.9774 4.94751 68.88C5.22934 68.7825 5.52852 68.7454 5.82561 68.7711Z" fill="#515151"/>
<path d="M32.9094 58.7518C30.2104 58.7598 27.5258 59.1457 24.9338 59.8983V51.2415C27.5278 50.5057 30.2131 50.1421 32.9094 50.1614C35.6001 50.1432 38.2798 50.5068 40.8683 51.2415V59.9647C38.2923 59.1587 35.6086 58.7497 32.9094 58.7518Z" fill="black"/>
<path d="M23.3552 51.7398V60.4797C15.3796 63.4041 9.81337 70.0006 9.81337 77.5774C9.81337 87.3974 19.1348 94.0437 32.9092 94.0437C46.6837 94.0437 56.0051 87.3974 56.0051 77.5774C56.0051 70.0006 50.4222 63.4041 42.4633 60.4797V51.7398C51.7847 55.063 57.6002 63.6866 57.6002 75.1515C57.6002 88.0454 47.7138 96.7521 32.9092 96.7521C18.1046 96.7521 8.21826 88.0952 8.21826 75.1515C8.21826 63.6866 14.0338 55.0962 23.3552 51.7398Z" fill="#515151"/>
<path d="M3.43288 78.0924H6.75602C6.90758 79.2989 7.14637 80.4928 7.47049 81.6648H5.80892C5.51023 81.685 5.21052 81.6453 4.92744 81.5479C4.64436 81.4504 4.38365 81.2973 4.16067 81.0976C3.93768 80.8978 3.75694 80.6554 3.6291 80.3847C3.50125 80.114 3.42888 79.8205 3.41626 79.5214L3.43288 78.0924Z" fill="#515151"/>
<path d="M60.3752 53.7505C61.4764 53.7505 62.3691 52.9471 62.3691 51.956C62.3691 50.9649 61.4764 50.1615 60.3752 50.1615C59.274 50.1615 58.3813 50.9649 58.3813 51.956C58.3813 52.9471 59.274 53.7505 60.3752 53.7505Z" fill="#515151"/>
</g>
<defs>
<clipPath id="clip0_1390_17216">
<rect width="72" height="104.995" fill="white" transform="translate(0.425537 0.995239)"/>
</clipPath>
</defs>
</svg>
